<?xml version="1.0" encoding="utf-8"?>
<!-- Generator: Adobe Illustrator 27.0.0, SVG Export Plug-In . SVG Version: 6.00 Build 0)  -->
<svg version="1.1" id="Layer_1" xmlns="http://www.w3.org/2000/svg" xmlns:xlink="http://www.w3.org/1999/xlink" x="0px" y="0px"
	 viewBox="0 0 424.3 425.2" style="enable-background:new 0 0 424.3 425.2;" xml:space="preserve">
<style type="text/css">
	.st0{stroke:#EA2700;stroke-width:2.8346;stroke-miterlimit:10;}
</style>
<g>
	<path fill="#EA2700" d="M62.6,216.9c-0.2,70.7,48.2,133.7,119,151c82.9,20.2,167.7-31.7,187.4-114.7c6.8-28.6,5.6-56.8-3.3-84.8
		c-0.9-2.7-1.2-5.9-0.7-8.7c1-5.2,5.6-8.5,10.7-8.8c5.6-0.3,10.5,2.5,12,8.2c3,10.8,6.2,21.6,7.8,32.6c5.5,38.9-0.8,76.1-19.9,110.5
		c-28.5,51.3-72,82.5-130,92c-91.5,15-178.7-43.3-201.9-132.4C19.6,168.6,74.5,71.5,167,44.6c35.4-10.3,70.5-9.7,105.6,1.1
		c7.6,2.4,11,6.2,11.1,12.3c0.1,8.2-7.3,13.7-15.3,11.8c-10.5-2.5-21-5.5-31.6-7.1c-25-3.7-49.6-0.7-73.1,8.5
		c-52.1,20.4-84.7,58.1-97.6,112.4C63.1,194.3,63,205,62.6,216.9L62.6,216.9z"/>
	<path fill="#EA2700" d="M173.6,210.3c-28.1-32.6-14.2-71.8,6.9-88.3c23.4-18.2,57.2-16.9,79,4.1c21.2,20.5,26.2,56.6,2.2,84.1
		c1.2,0.7,2.3,1.4,3.4,2.2c27.4,17.9,41.7,43.1,42.5,75.8c0.2,7.3-5,12.6-11.8,12.6c-6.9,0-11.9-5.1-12.1-12.4
		c-0.7-29.9-19.5-54.6-48-62.8c-7.2-2.1-10.7-5.5-11.1-10.9c-0.6-6.9,3.3-10.6,9.1-13.4c13.2-6.4,21.5-21.1,19.9-34.8
		c-1.8-16-11.9-28-26.8-31.9c-17.8-4.6-36.3,5-42.6,22.2c-6.4,17.3,1.3,36.5,17.9,44.6c4.5,2.2,8.2,4.9,8.9,10.1
		c1,6.7-2.7,11.9-9.8,13.8c-9,2.4-17.3,6.3-24.5,12.3c-16.2,13.3-24.3,30.5-24.8,51.4c-0.1,6.1-4.6,11.2-10.3,11.9
		c-6.1,0.7-12.2-3.1-13.2-9c-0.6-3.5-0.5-7.2-0.1-10.8c3.3-30.3,17.9-53.6,44-69.6C172.6,211,173.1,210.6,173.6,210.3z"/>
	<path fill="#EA2700" d="M325.5,124.1c0-2.9,0-5.7,0-8.6c0.1-7.2,4.6-11.9,11.7-12.3c8.8-0.6,15.5-5.6,17.4-13.3c1.8-7.2-0.1-13.4-5.6-18.2
		c-5.5-4.7-11.8-5.8-18.5-2.9c-7,3-10.4,8.6-11,16c-0.6,7.5-5.1,12.3-11.8,12.4c-6.8,0.1-12.1-5-12.2-11.9
		c-0.4-20.9,15.4-38.8,36.8-41.8c20-2.8,39.9,10.5,45.5,30.2c5.9,21-4.8,42.7-25.2,50.5c-2.6,1-3.5,2.2-3.3,4.8
		c0.2,2.2,0.2,4.5-0.2,6.7c-1.1,5.9-6.8,9.8-13,9.3c-5.7-0.5-10.5-5.6-10.6-11.6C325.5,130.4,325.5,127.2,325.5,124.1z"/>
	<path fill="#EA2700" d="M325.4,165.9c0.2-2,0-4,0.5-5.9c1.5-5.9,7.3-9.6,13.4-8.8c5.6,0.7,10,5.8,10.1,11.7c0,1.7,0,3.5,0,5.2
		c0,7.6-4.9,12.9-11.9,12.9c-7,0-11.9-5.3-12-12.9c0-0.7,0-1.5,0-2.2C325.5,165.9,325.4,165.9,325.4,165.9z"/>
</g>
</svg>
