<?xml version="1.0" encoding="UTF-8"?>
<svg width="32px" height="32px" viewBox="0 0 32 32" version="1.1" xmlns="http://www.w3.org/2000/svg" xmlns:xlink="http://www.w3.org/1999/xlink">
    <!-- Generator: Sketch 52.6 (67491) - http://www.bohemiancoding.com/sketch -->
    <title>Shape</title>
    <desc>Created with Sketch.</desc>
    <g id="Desktop" stroke="none" stroke-width="1" fill="none" fill-rule="evenodd">
        <g id="Desktop-Homepage" transform="translate(-1280.000000, -12087.000000)" fill="#C536A4" fill-rule="nonzero">
            <g id="Group-50" transform="translate(0.000000, 11762.000000)">
                <path d="M1295.99018,337.810526 C1294.23719,337.810526 1292.80982,339.237193 1292.80982,340.990175 C1292.80982,342.74386 1294.23719,344.171228 1295.99018,344.171228 C1297.74386,344.171228 1299.17053,342.74386 1299.17053,340.990175 C1299.17053,339.237193 1297.74386,337.810526 1295.99018,337.810526 Z M1295.99018,337.810526 C1294.23719,337.810526 1292.80982,339.237193 1292.80982,340.990175 C1292.80982,342.74386 1294.23719,344.171228 1295.99018,344.171228 C1297.74386,344.171228 1299.17053,342.74386 1299.17053,340.990175 C1299.17053,339.237193 1297.74386,337.810526 1295.99018,337.810526 Z M1301.28842,332.625263 L1290.69263,332.625263 C1289.0014,332.625263 1287.62526,334.001404 1287.62526,335.692632 L1287.62526,346.288421 C1287.62526,347.979649 1289.0014,349.355789 1290.69263,349.355789 L1301.28842,349.355789 C1302.97965,349.355789 1304.35579,347.979649 1304.35579,346.288421 L1304.35579,335.692632 C1304.35579,334.001404 1302.97965,332.625263 1301.28842,332.625263 Z M1295.99018,346.498246 C1292.95368,346.498246 1290.48281,344.027368 1290.48281,340.990175 C1290.48281,337.953684 1292.95368,335.482807 1295.99018,335.482807 C1299.02737,335.482807 1301.49825,337.953684 1301.49825,340.990175 C1301.49825,344.027368 1299.02737,346.498246 1295.99018,346.498246 Z M1301.67509,336.621754 C1300.95649,336.621754 1300.37193,336.037193 1300.37193,335.318596 C1300.37193,334.6 1300.95649,334.015439 1301.67509,334.015439 C1302.39368,334.015439 1302.97825,334.6 1302.97825,335.318596 C1302.97825,336.037193 1302.39368,336.621754 1301.67509,336.621754 Z M1295.99018,337.810526 C1294.23719,337.810526 1292.80982,339.237193 1292.80982,340.990175 C1292.80982,342.74386 1294.23719,344.171228 1295.99018,344.171228 C1297.74386,344.171228 1299.17053,342.74386 1299.17053,340.990175 C1299.17053,339.237193 1297.74386,337.810526 1295.99018,337.810526 Z M1301.28842,332.625263 L1290.69263,332.625263 C1289.0014,332.625263 1287.62526,334.001404 1287.62526,335.692632 L1287.62526,346.288421 C1287.62526,347.979649 1289.0014,349.355789 1290.69263,349.355789 L1301.28842,349.355789 C1302.97965,349.355789 1304.35579,347.979649 1304.35579,346.288421 L1304.35579,335.692632 C1304.35579,334.001404 1302.97965,332.625263 1301.28842,332.625263 Z M1295.99018,346.498246 C1292.95368,346.498246 1290.48281,344.027368 1290.48281,340.990175 C1290.48281,337.953684 1292.95368,335.482807 1295.99018,335.482807 C1299.02737,335.482807 1301.49825,337.953684 1301.49825,340.990175 C1301.49825,344.027368 1299.02737,346.498246 1295.99018,346.498246 Z M1301.67509,336.621754 C1300.95649,336.621754 1300.37193,336.037193 1300.37193,335.318596 C1300.37193,334.6 1300.95649,334.015439 1301.67509,334.015439 C1302.39368,334.015439 1302.97825,334.6 1302.97825,335.318596 C1302.97825,336.037193 1302.39368,336.621754 1301.67509,336.621754 Z M1295.99018,337.810526 C1294.23719,337.810526 1292.80982,339.237193 1292.80982,340.990175 C1292.80982,342.74386 1294.23719,344.171228 1295.99018,344.171228 C1297.74386,344.171228 1299.17053,342.74386 1299.17053,340.990175 C1299.17053,339.237193 1297.74386,337.810526 1295.99018,337.810526 Z M1280,325 L1280,356.981053 L1311.98105,356.981053 L1311.98105,325 L1280,325 Z M1306.68281,346.288421 C1306.68281,349.263158 1304.26316,351.682807 1301.28842,351.682807 L1290.69263,351.682807 C1287.71789,351.682807 1285.29825,349.263158 1285.29825,346.288421 L1285.29825,335.692632 C1285.29825,332.717895 1287.71789,330.298246 1290.69263,330.298246 L1301.28842,330.298246 C1304.26316,330.298246 1306.68281,332.717895 1306.68281,335.692632 L1306.68281,346.288421 Z M1301.28842,332.625263 L1290.69263,332.625263 C1289.0014,332.625263 1287.62526,334.001404 1287.62526,335.692632 L1287.62526,346.288421 C1287.62526,347.979649 1289.0014,349.355789 1290.69263,349.355789 L1301.28842,349.355789 C1302.97965,349.355789 1304.35579,347.979649 1304.35579,346.288421 L1304.35579,335.692632 C1304.35579,334.001404 1302.97965,332.625263 1301.28842,332.625263 Z M1295.99018,346.498246 C1292.95368,346.498246 1290.48281,344.027368 1290.48281,340.990175 C1290.48281,337.953684 1292.95368,335.482807 1295.99018,335.482807 C1299.02737,335.482807 1301.49825,337.953684 1301.49825,340.990175 C1301.49825,344.027368 1299.02737,346.498246 1295.99018,346.498246 Z M1301.67509,336.621754 C1300.95649,336.621754 1300.37193,336.037193 1300.37193,335.318596 C1300.37193,334.6 1300.95649,334.015439 1301.67509,334.015439 C1302.39368,334.015439 1302.97825,334.6 1302.97825,335.318596 C1302.97825,336.037193 1302.39368,336.621754 1301.67509,336.621754 Z M1295.99018,337.810526 C1294.23719,337.810526 1292.80982,339.237193 1292.80982,340.990175 C1292.80982,342.74386 1294.23719,344.171228 1295.99018,344.171228 C1297.74386,344.171228 1299.17053,342.74386 1299.17053,340.990175 C1299.17053,339.237193 1297.74386,337.810526 1295.99018,337.810526 Z M1295.99018,337.810526 C1294.23719,337.810526 1292.80982,339.237193 1292.80982,340.990175 C1292.80982,342.74386 1294.23719,344.171228 1295.99018,344.171228 C1297.74386,344.171228 1299.17053,342.74386 1299.17053,340.990175 C1299.17053,339.237193 1297.74386,337.810526 1295.99018,337.810526 Z M1295.99018,337.810526 C1294.23719,337.810526 1292.80982,339.237193 1292.80982,340.990175 C1292.80982,342.74386 1294.23719,344.171228 1295.99018,344.171228 C1297.74386,344.171228 1299.17053,342.74386 1299.17053,340.990175 C1299.17053,339.237193 1297.74386,337.810526 1295.99018,337.810526 Z M1301.28842,332.625263 L1290.69263,332.625263 C1289.0014,332.625263 1287.62526,334.001404 1287.62526,335.692632 L1287.62526,346.288421 C1287.62526,347.979649 1289.0014,349.355789 1290.69263,349.355789 L1301.28842,349.355789 C1302.97965,349.355789 1304.35579,347.979649 1304.35579,346.288421 L1304.35579,335.692632 C1304.35579,334.001404 1302.97965,332.625263 1301.28842,332.625263 Z M1295.99018,346.498246 C1292.95368,346.498246 1290.48281,344.027368 1290.48281,340.990175 C1290.48281,337.953684 1292.95368,335.482807 1295.99018,335.482807 C1299.02737,335.482807 1301.49825,337.953684 1301.49825,340.990175 C1301.49825,344.027368 1299.02737,346.498246 1295.99018,346.498246 Z M1301.67509,336.621754 C1300.95649,336.621754 1300.37193,336.037193 1300.37193,335.318596 C1300.37193,334.6 1300.95649,334.015439 1301.67509,334.015439 C1302.39368,334.015439 1302.97825,334.6 1302.97825,335.318596 C1302.97825,336.037193 1302.39368,336.621754 1301.67509,336.621754 Z M1295.99018,337.810526 C1294.23719,337.810526 1292.80982,339.237193 1292.80982,340.990175 C1292.80982,342.74386 1294.23719,344.171228 1295.99018,344.171228 C1297.74386,344.171228 1299.17053,342.74386 1299.17053,340.990175 C1299.17053,339.237193 1297.74386,337.810526 1295.99018,337.810526 Z M1295.99018,337.810526 C1294.23719,337.810526 1292.80982,339.237193 1292.80982,340.990175 C1292.80982,342.74386 1294.23719,344.171228 1295.99018,344.171228 C1297.74386,344.171228 1299.17053,342.74386 1299.17053,340.990175 C1299.17053,339.237193 1297.74386,337.810526 1295.99018,337.810526 Z M1295.99018,337.810526 C1294.23719,337.810526 1292.80982,339.237193 1292.80982,340.990175 C1292.80982,342.74386 1294.23719,344.171228 1295.99018,344.171228 C1297.74386,344.171228 1299.17053,342.74386 1299.17053,340.990175 C1299.17053,339.237193 1297.74386,337.810526 1295.99018,337.810526 Z M1301.28842,332.625263 L1290.69263,332.625263 C1289.0014,332.625263 1287.62526,334.001404 1287.62526,335.692632 L1287.62526,346.288421 C1287.62526,347.979649 1289.0014,349.355789 1290.69263,349.355789 L1301.28842,349.355789 C1302.97965,349.355789 1304.35579,347.979649 1304.35579,346.288421 L1304.35579,335.692632 C1304.35579,334.001404 1302.97965,332.625263 1301.28842,332.625263 Z M1295.99018,346.498246 C1292.95368,346.498246 1290.48281,344.027368 1290.48281,340.990175 C1290.48281,337.953684 1292.95368,335.482807 1295.99018,335.482807 C1299.02737,335.482807 1301.49825,337.953684 1301.49825,340.990175 C1301.49825,344.027368 1299.02737,346.498246 1295.99018,346.498246 Z M1301.67509,336.621754 C1300.95649,336.621754 1300.37193,336.037193 1300.37193,335.318596 C1300.37193,334.6 1300.95649,334.015439 1301.67509,334.015439 C1302.39368,334.015439 1302.97825,334.6 1302.97825,335.318596 C1302.97825,336.037193 1302.39368,336.621754 1301.67509,336.621754 Z M1295.99018,337.810526 C1294.23719,337.810526 1292.80982,339.237193 1292.80982,340.990175 C1292.80982,342.74386 1294.23719,344.171228 1295.99018,344.171228 C1297.74386,344.171228 1299.17053,342.74386 1299.17053,340.990175 C1299.17053,339.237193 1297.74386,337.810526 1295.99018,337.810526 Z" id="Shape"></path>
            </g>
        </g>
    </g>
</svg>