<svg width="24" height="24" viewBox="0 0 24 24" fill="none" xmlns="http://www.w3.org/2000/svg">
<path d="M13 12.175L15.25 14.425C15.4333 14.6083 15.525 14.8377 15.525 15.113C15.525 15.3883 15.4333 15.6257 15.25 15.825C15.05 16.025 14.8123 16.125 14.537 16.125C14.2617 16.125 14.0243 16.025 13.825 15.825L11.3 13.3C11.2 13.2 11.125 13.0873 11.075 12.962C11.025 12.8367 11 12.7077 11 12.575V9C11 8.71667 11.096 8.479 11.288 8.287C11.48 8.095 11.7173 7.99933 12 8C12.2833 8 12.521 8.096 12.713 8.288C12.905 8.48 13.0007 8.71733 13 9V12.175ZM12 6C11.7167 6 11.479 5.904 11.287 5.712C11.095 5.52 10.9993 5.28267 11 5V4H13V5C13 5.28333 12.904 5.521 12.712 5.713C12.52 5.905 12.2827 6.00067 12 6ZM18 12C18 11.7167 18.096 11.479 18.288 11.287C18.48 11.095 18.7173 10.9993 19 11H20V13H19C18.7167 13 18.479 12.904 18.287 12.712C18.095 12.52 17.9993 12.2827 18 12ZM12 18C12.2833 18 12.521 18.096 12.713 18.288C12.905 18.48 13.0007 18.7173 13 19V20H11V19C11 18.7167 11.096 18.479 11.288 18.287C11.48 18.095 11.7173 17.9993 12 18ZM6 12C6 12.2833 5.904 12.521 5.712 12.713C5.52 12.905 5.28267 13.0007 5 13H4V11H5C5.28333 11 5.521 11.096 5.713 11.288C5.905 11.48 6.00067 11.7173 6 12ZM12 22C10.6167 22 9.31667 21.7373 8.1 21.212C6.88333 20.6867 5.825 19.9743 4.925 19.075C4.025 18.175 3.31267 17.1167 2.788 15.9C2.26333 14.6833 2.00067 13.3833 2 12C2 10.6167 2.26267 9.31667 2.788 8.1C3.31333 6.88333 4.02567 5.825 4.925 4.925C5.825 4.025 6.88333 3.31267 8.1 2.788C9.31667 2.26333 10.6167 2.00067 12 2C13.3833 2 14.6833 2.26267 15.9 2.788C17.1167 3.31333 18.175 4.02567 19.075 4.925C19.975 5.825 20.6877 6.88333 21.213 8.1C21.7383 9.31667 22.0007 10.6167 22 12C22 13.3833 21.7373 14.6833 21.212 15.9C20.6867 17.1167 19.9743 18.175 19.075 19.075C18.175 19.975 17.1167 20.6877 15.9 21.213C14.6833 21.7383 13.3833 22.0007 12 22ZM20 12C20 9.76667 19.225 7.875 17.675 6.325C16.125 4.775 14.2333 4 12 4C9.76667 4 7.875 4.775 6.325 6.325C4.775 7.875 4 9.76667 4 12C4 14.2333 4.775 16.125 6.325 17.675C7.875 19.225 9.76667 20 12 20C14.2333 20 16.125 19.225 17.675 17.675C19.225 16.125 20 14.2333 20 12Z" fill="#797979"/>
</svg>
