<?xml version="1.0" encoding="UTF-8"?>
<svg width="32px" height="32px" viewBox="0 0 32 32" version="1.1" xmlns="http://www.w3.org/2000/svg" xmlns:xlink="http://www.w3.org/1999/xlink">
    <!-- Generator: Sketch 52.6 (67491) - http://www.bohemiancoding.com/sketch -->
    <title>youtube</title>
    <desc>Created with Sketch.</desc>
    <g id="Desktop" stroke="none" stroke-width="1" fill="none" fill-rule="evenodd">
        <g id="Desktop-Homepage" transform="translate(-1318.000000, -12087.000000)">
            <g id="Group-50" transform="translate(0.000000, 11762.000000)">
                <g id="youtube" transform="translate(1318.000000, 325.000000)">
                    <rect id="Rectangle" fill="#DC472E" x="0" y="0" width="31.9811228" height="31.9811228"></rect>
                    <g id="Group" transform="translate(6.456140, 4.421053)" fill="#FFFFFF">
                        <path d="M12.0181754,16.0515088 C12.0174737,15.9322105 11.982386,15.808 11.9381754,15.6964211 C11.8792281,15.5497544 11.7529123,15.4767719 11.5943158,15.4613333 C11.4083509,15.4430877 11.2595789,15.5181754 11.1248421,15.6374737 C11.070807,15.6844912 11.0462456,15.7546667 11.0462456,15.7546667 L11.0490526,19.5420351 L11.0490526,19.6353684 C11.0490526,19.6353684 11.0813333,19.6788772 11.0862456,19.6844912 C11.1957193,19.8030877 11.3234386,19.8971228 11.4869474,19.930807 C11.7564211,19.9862456 11.9465965,19.8739649 11.9992281,19.6241404 C12.0125614,19.5616842 12.0202807,19.4971228 12.0202807,19.4332632 C12.0216842,18.3055439 12.0237895,17.1785263 12.0181754,16.0515088 Z M12.0181754,16.0515088 C12.0174737,15.9322105 11.982386,15.808 11.9381754,15.6964211 C11.8792281,15.5497544 11.7529123,15.4767719 11.5943158,15.4613333 C11.4083509,15.4430877 11.2595789,15.5181754 11.1248421,15.6374737 C11.070807,15.6844912 11.0462456,15.7546667 11.0462456,15.7546667 L11.0490526,19.5420351 L11.0490526,19.6353684 C11.0490526,19.6353684 11.0813333,19.6788772 11.0862456,19.6844912 C11.1957193,19.8030877 11.3234386,19.8971228 11.4869474,19.930807 C11.7564211,19.9862456 11.9465965,19.8739649 11.9992281,19.6241404 C12.0125614,19.5616842 12.0202807,19.4971228 12.0202807,19.4332632 C12.0216842,18.3055439 12.0237895,17.1785263 12.0181754,16.0515088 Z M16.2588772,10.3399298 C11.7767719,10.2437895 7.2925614,10.2437895 2.80975439,10.3399298 C1.25466667,10.3729123 0.0111578947,11.6444912 0.0111578947,13.2002807 L0.0111578947,20.2009825 C0.0111578947,21.7574737 1.25466667,23.0290526 2.80975439,23.0620351 C7.2925614,23.1581754 11.7767719,23.1581754 16.2588772,23.0620351 C17.8146667,23.0290526 19.0581754,21.7574737 19.0581754,20.2009825 L19.0581754,13.2002807 C19.0581754,11.6445614 17.8146667,10.3729123 16.2588772,10.3399298 Z M4.12624561,20.8389474 L2.83361404,20.8389474 L2.83361404,13.5315789 L1.49536842,13.5315789 L1.49536842,12.3091228 L5.46729825,12.3091228 L5.46729825,13.5287719 L4.12624561,13.5287719 L4.12624561,20.8389474 Z M8.75221053,17.8058947 L8.75221053,20.8395789 L7.60764912,20.8395789 L7.60764912,20.1462456 C7.56624561,20.1904561 7.54308772,20.2143158 7.52133333,20.2388772 C7.27501754,20.5167719 6.9957193,20.7483509 6.63922807,20.8711579 C6.46519298,20.930807 6.28624561,20.9511579 6.10308772,20.9195789 C5.85326316,20.8781754 5.68554386,20.7343158 5.58449123,20.5069474 C5.49045614,20.2971228 5.46659649,20.0725614 5.46589474,19.8465965 C5.46308772,19.0115088 5.46449123,14.5918596 5.46449123,14.5490526 L6.60624561,14.5490526 C6.60835088,14.5876491 6.6125614,17.7602807 6.61326316,19.3076491 C6.61326316,19.3918596 6.61396491,19.4781754 6.63080702,19.5602807 C6.67291228,19.768 6.83221053,19.8571228 7.03221053,19.7841404 C7.26238596,19.6999298 7.43782456,19.5413333 7.58519298,19.3511579 C7.60694737,19.3237895 7.60694737,19.2746667 7.60694737,19.2353684 L7.60694737,14.5420351 L8.75221053,14.5392281 C8.75221053,14.5392982 8.75221053,16.7546667 8.75221053,17.8058947 Z M13.1065965,20.2332632 C12.953614,20.693614 12.6167719,20.928 12.1325614,20.9230877 C11.7388772,20.9195789 11.4195789,20.7630877 11.1564211,20.4774737 C11.1269474,20.4458947 11.0455439,20.3595789 11.0455439,20.3595789 L11.0455439,20.8381754 L9.89887719,20.8381754 L9.89887719,12.3083509 L11.0455439,12.3083509 C11.0455439,13.2164211 11.0455439,15.1160702 11.0455439,15.1160702 C11.0455439,15.1160702 11.1101053,14.9869474 11.1690526,14.9202807 C11.3465965,14.7216842 11.5627368,14.568 11.8294035,14.5006316 C12.2694035,14.3904561 12.7767719,14.5265965 13.0181754,15.0409825 C13.1606316,15.3448421 13.2006316,15.6690526 13.2006316,15.9988772 C13.2027368,17.1911579 13.2027368,18.3834386 13.2013333,19.5757193 C13.2006316,19.7988772 13.1774737,20.0192982 13.1065965,20.2332632 Z M17.3416842,19.9933333 C17.1430877,20.5750877 16.7325614,20.8978947 16.1304561,20.9863158 C15.7571228,21.0410526 15.3872982,21.0333333 15.0371228,20.8747368 C14.5578246,20.6585965 14.2862456,20.2677193 14.1697544,19.7701754 C14.1157193,19.5385965 14.0890526,19.2957895 14.0862456,19.0578947 C14.0771228,18.1238596 14.0813333,17.1891228 14.0834386,16.2550877 C14.0841404,15.7666667 14.2006316,15.3161404 14.5353684,14.9421053 C14.9171228,14.5147368 15.4055439,14.3554386 15.9634386,14.3912281 C16.1311579,14.4017544 16.302386,14.4291228 16.4616842,14.4817544 C17.0041404,14.66 17.2939649,15.0663158 17.4076491,15.6052632 C17.4511579,15.8129825 17.4672982,16.0284211 17.470807,16.2410526 C17.4799298,16.7392982 17.4672982,17.8375439 17.4672982,17.8375439 L15.2715088,17.8375439 L15.2715088,19.4115789 C15.2715088,19.694386 15.5002807,19.9231579 15.7830877,19.9231579 C16.065193,19.9231579 16.2939649,19.694386 16.2939649,19.4115789 L16.2939649,18.6024561 L17.473614,18.6024561 C17.473614,18.602386 17.4911579,19.5575439 17.3416842,19.9933333 Z M16.2939649,15.9778947 C16.2939649,15.6957895 16.065193,15.4663158 15.7830877,15.4663158 C15.5002807,15.4663158 15.2715088,15.6957895 15.2715088,15.9778947 L15.2715088,16.8614035 L16.2939649,16.8614035 L16.2939649,15.9778947 Z M11.9381754,15.6964912 C11.8792281,15.5498246 11.7529123,15.4768421 11.5943158,15.4614035 C11.4083509,15.4431579 11.2595789,15.5182456 11.1248421,15.6375439 C11.070807,15.6845614 11.0462456,15.7547368 11.0462456,15.7547368 L11.0490526,19.5421053 L11.0490526,19.6354386 C11.0490526,19.6354386 11.0813333,19.6789474 11.0862456,19.6845614 C11.1957193,19.8031579 11.3234386,19.897193 11.4869474,19.9308772 C11.7564211,19.9863158 11.9465965,19.8740351 11.9992281,19.6242105 C12.0125614,19.5617544 12.0202807,19.497193 12.0202807,19.4333333 C12.0216842,18.305614 12.0237895,17.1785965 12.0181754,16.0515789 C12.0174737,15.9322105 11.982386,15.808 11.9381754,15.6964912 Z" id="Shape" fill-rule="nonzero"></path>
                        <path d="M14.8692632,2.24491228 L14.8689123,8.57782456 L13.6954386,8.57782456 L13.6968421,7.89747368 C13.5670877,8.02526316 13.4563509,8.14463158 13.3346667,8.25185965 C13.1189474,8.44189474 12.8745965,8.58357895 12.5887719,8.63950877 C12.1499649,8.72533333 11.7762105,8.58659649 11.6362807,8.13214035 C11.5896842,7.98077193 11.5615439,7.81761404 11.5603509,7.65957895 L11.5603509,2.24491228 L12.7249825,2.24491228 L12.7249825,7.07445614 C12.7249825,7.13845614 12.7301053,7.20315789 12.7413333,7.26589474 C12.7767018,7.46491228 12.9237895,7.55859649 13.1154386,7.49214035 C13.3490526,7.41129825 13.5272982,7.24954386 13.6785263,7.05894737 C13.7,7.0317193 13.6961404,6.98091228 13.6961404,6.94098246 L13.6961404,2.24491228 L14.8692632,2.24491228 Z" id="Path"></path>
                        <path d="M5.16336842,3.34540351 C4.90863158,2.27164912 4.37494737,0.0049122807 4.37494737,0.0049122807 L3.03957895,0.0049122807 C3.03957895,0.0049122807 4.06554386,3.40750877 4.52435088,4.92498246 C4.54084211,4.97985965 4.54842105,5.0394386 4.54842105,5.09691228 L4.54792982,8.57649123 L5.77929825,8.57649123 L5.77880702,5.09691228 C5.77880702,5.0394386 5.78638596,4.97985965 5.80287719,4.92498246 C6.26168421,3.40750877 7.28764912,0.0049122807 7.28764912,0.0049122807 L5.9522807,0.0049122807 C5.9522807,0.0049122807 5.41852632,2.27164912 5.16385965,3.34540351 L5.16336842,3.34540351 Z" id="Path"></path>
                        <path d="M8.89487719,2.08638596 C7.96687719,2.08638596 7.21459649,2.83866667 7.21459649,3.76666667 L7.21459649,7.05501754 C7.21459649,7.98301754 7.96687719,8.73529825 8.89487719,8.73529825 C9.82287719,8.73529825 10.5751579,7.98301754 10.5751579,7.05501754 L10.5751579,3.76666667 C10.5752281,2.83866667 9.82287719,2.08638596 8.89487719,2.08638596 Z M9.37978947,7.12140351 C9.37978947,7.38877193 9.16224561,7.60624561 8.89494737,7.60624561 C8.62764912,7.60624561 8.41010526,7.38877193 8.41010526,7.12140351 L8.41010526,3.70021053 C8.41010526,3.43284211 8.62764912,3.21536842 8.89494737,3.21536842 C9.16224561,3.21536842 9.37978947,3.43291228 9.37978947,3.70021053 L9.37978947,7.12140351 Z" id="Shape" fill-rule="nonzero"></path>
                    </g>
                </g>
            </g>
        </g>
    </g>
</svg>