<?xml version="1.0" encoding="utf-8"?>
<!-- Generator: Adobe Illustrator 23.0.3, SVG Export Plug-In . SVG Version: 6.00 Build 0)  -->
<svg version="1.1" id="Layer_1" focusable="false" xmlns="http://www.w3.org/2000/svg" xmlns:xlink="http://www.w3.org/1999/xlink"
	 x="0px" y="0px" viewBox="0 0 32 32" style="enable-background:new 0 0 32 32;" xml:space="preserve">
<style type="text/css">
	.st0{fill-rule:evenodd;clip-rule:evenodd;fill:#FFFFFF;}
	.st1{fill-rule:evenodd;clip-rule:evenodd;fill:#0077B5;}
</style>
<g>
	<g>
		<g>
			<path class="st0" d="M2.6,32h26.7c1.5,0,2.6-1.2,2.6-2.6V2.6C32,1.2,30.8,0,29.4,0H2.6C1.2,0,0,1.2,0,2.6v26.7 C0,30.8,1.2,32,2.6,32"/>
			<path class="st1" d="M2.6,32h26.7c1.5,0,2.6-1.2,2.6-2.6V2.6C32,1.2,30.8,0,29.4,0H2.6C1.2,0,0,1.2,0,2.6v26.7 C0,30.8,1.2,32,2.6,32z M12.2,12.2h4.5v2.3c0.6-1.2,2.3-2.5,4.7-2.5c4.4,0,5.9,2,5.9,6.8v8.5h-4.7v-7.5c0-2.5-0.5-3.9-2.3-3.9 c-2.5,0-3.3,1.9-3.3,3.9v7.5h-4.7V12.2z M4.7,27.3h4.7V12.2H4.7V27.3z M9.9,7.1c0,1.6-1.3,2.9-2.9,2.9S4.2,8.6,4.2,7.1 c0-1.6,1.3-2.9,2.9-2.9S9.9,5.5,9.9,7.1z"/>
		</g>
	</g>
</g>
</svg>