<?xml version="1.0" encoding="utf-8"?>
<!-- Generator: Adobe Illustrator 27.0.0, SVG Export Plug-In . SVG Version: 6.00 Build 0)  -->
<svg version="1.1" id="Layer_1" xmlns="http://www.w3.org/2000/svg" xmlns:xlink="http://www.w3.org/1999/xlink" x="0px" y="0px"
	 viewBox="0 0 424.3 425.2" style="enable-background:new 0 0 424.3 425.2;" xml:space="preserve">
<style type="text/css">
	.st0{stroke:#000000;stroke-width:2.8346;stroke-miterlimit:10;}
</style>
<g>
	<path fill="#EA2700" class="st0" d="M217.7,408.9c-5.7-1.1-11.6-1.9-17.2-3.4c-15.7-4.1-29.1-12.6-40.7-23.6c-16-15.3-31.6-30.9-46.9-46.9
		c-16-16.9-9.3-43.6,12.4-51.9c0.8-0.3,1.6-0.6,2.4-1c-14.9-20.4-4.1-46.3,19.4-51.4c-3.4-8.9-3.7-17.8,0.3-26.5
		c4.1-8.7,10.7-14.6,20.8-17.1c-1.6-1.7-2.9-3.1-4.3-4.5c-9.3-9.7-11.8-23.2-6.5-35.3c5.2-11.8,17.1-19.3,30.2-18.8
		c8.4,0.3,15.8,3.4,21.8,9.3c5.5,5.5,10.9,11,17.5,17.6c0.9-1.5,1.3-2.9,2.3-3.9c6.1-6.4,12.2-12.9,18.5-19.1
		c9.3-9.1,20.5-12.2,33.1-8.3c12.3,3.8,19.7,12.5,21.8,25.2c1.8,10.9-1.6,20.3-9.3,28c-7.3,7.3-14.9,14.4-22.6,21.8
		c1.6,1.7,2.4,2.7,3.4,3.6c12.1,12.3,24.7,24.1,36.2,37c14.2,15.8,21.5,34.8,22.8,56.1c0.1,1.7,0.4,3.4,0.6,5.1c0,0.5,0,1,0,1.5
		c-0.2,1.7-0.5,3.4-0.6,5.2c-0.6,11.7-3.6,22.8-8.2,33.6c-7.4,17.3-20.4,30-34,42.2c-11.3,10.1-23.8,18.1-38.6,22
		c-5.8,1.5-11.7,2.4-17.5,3.5C229.2,408.9,223.5,408.9,217.7,408.9z M317.5,301.5c-0.5-22.1-8.3-41.1-23.9-56.8
		c-15-15.1-30-30.1-45-45.1c-16.5-16.5-33.1-33-49.6-49.6c-4.3-4.3-9.3-6.8-15.5-5.6c-6.1,1.2-10.3,4.9-12.3,10.9
		c-2.1,6.5-0.2,12.1,4.5,16.8c11.3,11.4,22.6,22.7,33.9,34c18.2,18.2,36.4,36.5,54.6,54.7c2.3,2.3,4.1,4.8,3.4,8.2
		c-1.1,6.2-8.7,9-13.6,4.1c-7.5-7.5-15.2-14.8-22.7-22.4c-14.7-14.7-29.2-29.5-43.9-44.1c-9.2-9.1-24.1-4.9-27.1,7.6
		c-1.5,6.3,0.8,11.4,5.3,15.9c21.3,21.3,42.6,42.6,63.9,63.9c5,5,5.6,9.6,1.9,13.3c-3.7,3.7-8.3,2.9-13.3-2.1
		c-6.8-6.8-13.6-13.6-20.4-20.4c-11-11-22.1-22.1-33.1-33.1c-4.3-4.3-9.3-6.3-15.3-5.1c-6.1,1.2-10.5,4.8-12.2,10.8
		c-1.8,6.3-0.3,11.8,4.4,16.5c18.2,18.2,36.4,36.4,54.6,54.6c1.5,1.5,3,3.5,3.5,5.5c1,3.6-0.5,6.7-3.8,8.6c-3.3,1.9-6.5,1.4-9.3-1.3
		c-6.3-6.1-12.5-12.3-18.7-18.4c-7-7-13.9-14.1-20.9-21c-5.2-5.1-12.1-6.2-18.3-3.3c-6,2.9-10.1,8.9-8.9,15.8
		c0.6,3.8,2.9,7.8,5.6,10.6c15,15.5,30.2,31,45.7,46c24.9,24.1,62.9,28.8,93.2,12.2c13.1-7.2,23.1-17.9,32.9-28.6
		C310.9,339.6,317,321.6,317.5,301.5z M238.1,165.6c7.4,7.6,14.7,15,22.5,23c6.7-6.9,13.4-13.8,20.1-20.7c1.5-1.5,2.9-3.2,4-4.9
		c4.5-6.8,3.2-15.2-3-20.6c-5.8-5.1-14.9-5.4-20.5-0.1C253.2,149.9,245.7,157.9,238.1,165.6z"/>
	<path fill="#EA2700" class="st0" d="M256,25c8.1,2,15.1,5.7,20.2,12.5c9.3,12.2,9.3,27.8-1.3,39.1c-13.8,14.7-28.4,28.8-42.7,43
		c-3.4,3.4-7.9,3.4-11.4-0.1C206.3,105.1,191.6,91,177.8,76c-15.6-17-5.5-45.4,17.2-50.3c0.8-0.2,1.4-0.3,2.6-0.6
		c3-0.5,5.9-0.7,8.8-0.2c7.7,2,14.6,5.3,19.9,12c6-6.3,13.2-10,21.3-12C250.5,24.4,253.3,24.2,256,25z M226.6,102.4
		c0.9-0.9,1.8-1.6,2.5-2.4c11.1-11.1,22.4-22.1,33.3-33.4c5.7-6,5-15.2-0.9-20.9c-5.9-5.7-15.1-5.8-21.3,0c-2.6,2.5-5.1,5.1-7.7,7.6
		c-3.9,3.7-8.4,3.7-12.2,0c-2.4-2.3-4.7-4.8-7.2-7.1c-6.7-6.5-15.4-6.9-21.8-1.1c-6.3,5.7-7,15-0.5,21.7
		C202.4,78.8,214.5,90.3,226.6,102.4z"/>
</g>
</svg>
