<svg xmlns="http://www.w3.org/2000/svg" viewBox="0 0 170.2 45.6"><defs><style>.cls-1{fill:#ee4343;}</style></defs><g id="Layer_2" data-name="Layer 2"><g id="Layer_1-2" data-name="Layer 1"><path class="cls-1" d="M15.15,45.6Q6.72,45.29,3.2,42.39,0,39.74,0,34H11.48q0,2.9,3.67,3.52ZM32.87,35.29q0,10.23-15.62,10.31V37.54c2.71,0,4.06-1,4.06-2.74,0-1.14-1.82-1.93-5.46-2.34Q7,31.51,5.78,31.21.3,29.8.31,26.2.31,22,6.25,21a6.77,6.77,0,0,1-4.14-3.83A10.12,10.12,0,0,1,1,12.83Q1,1.33,15.15.39v8.3Q12.5,9,12.49,12.53q0,3.92,2.66,4.23V23.5H14c-1.57,0-2.35.44-2.35,1.33,0,.67,1.07,1.12,3.2,1.33q10.3.93,13.67,2.34A6.79,6.79,0,0,1,32.87,35.29ZM32.71.39l-.15,5.93-4.92.94q3.9,1.8,3.9,6.48c0,3-.93,5.18-2.81,6.64q-3.36,2.65-11.48,3V16.79q2.58-.39,2.58-4.22,0-3.51-2.58-3.83V.39Z"/><path class="cls-1" d="M47.62,32.79Q33,32.32,33,20.85h11.4c0,3,1.09,4.73,3.27,5.15Zm16.56-9.6a7.92,7.92,0,0,1-3.36,6.4q-3.9,3.12-11.09,3.2V26c2-.16,3-1,3-2.66a5.38,5.38,0,0,0-.08-.85c-.26-1.1-2.06-2-5.39-2.82a47.51,47.51,0,0,1-9-2.73c-3.18-1.61-4.76-4-4.76-7.18Q33.42.31,47.62,0V6.79q-3.12.32-2.73,3.13.24,1.63,5.31,2.81a45.61,45.61,0,0,1,9.14,2.73A8.29,8.29,0,0,1,64.18,23.19Zm-.86-11.71h-11c0-2.71-.86-4.24-2.58-4.61V0q7.5.15,10.54,2.81T63.32,11.48Z"/><path class="cls-1" d="M81.59,31.85A19.38,19.38,0,0,1,78.15,30v14.6H66.52V.39h6.56l2,3.83A12,12,0,0,1,81.59.39V9.21a3.54,3.54,0,0,0-3,2.35,16.36,16.36,0,0,0-.47,4.76A16,16,0,0,0,78.54,21a3.4,3.4,0,0,0,3,2.34ZM99.08,16.36q0,6.86-2.35,11-3,5.37-9.52,5.37a17.17,17.17,0,0,1-3.52-.31v-9a3.55,3.55,0,0,0,3-2.26,16.33,16.33,0,0,0,.47-4.75,17.17,17.17,0,0,0-.47-4.83,3.4,3.4,0,0,0-3-2.26V.16A5.81,5.81,0,0,1,84.87.08q7.65,0,11.32,5.29A19.33,19.33,0,0,1,99.08,16.36Z"/><path class="cls-1" d="M114.85,26.94q0,5.77-7.19,5.77t-7.26-5.77q0-5.79,7.26-5.78T114.85,26.94Z"/><path class="cls-1" d="M136.86,10.07a29.55,29.55,0,0,0-3.28-.23c-1.87,0-3.11.35-3.71,1.05A5.87,5.87,0,0,0,129,14.6V32.24H117.27V.39h6.55l2,3.75Q129-.08,136.86.39Z"/><path class="cls-1" d="M153.26,32.71q-15-.47-15-16.35,0-15.73,15-16.28V9.5c-2.87.32-4.3,2.6-4.3,6.86s1.43,6.7,4.3,7ZM170.2,16.36q0,15.81-14.83,16.35V23.37c2.75-.37,4.13-2.7,4.13-7s-1.38-6.49-4.13-6.86V.08Q170.19.62,170.2,16.36Z"/></g></g></svg>