<?xml version="1.0" encoding="UTF-8"?>
<svg width="26px" height="23px" viewBox="0 0 26 23" version="1.1" xmlns="http://www.w3.org/2000/svg" xmlns:xlink="http://www.w3.org/1999/xlink">
    <title>Group</title>
    <g id="Symbols" stroke="none" stroke-width="1" fill="none" fill-rule="evenodd">
        <g id="header-desktop" transform="translate(-1123.000000, -26.000000)" fill="#EA2700" fill-rule="nonzero">
            <g id="Group" transform="translate(1123.850651, 26.227535)">
                <path d="M12.5306367,3.55271368e-15 C7.97428756,3.55271368e-15 4.28063675,3.69365081 4.28063675,8.25 C4.28063675,12.8063492 7.97428756,16.5 12.5306367,16.5 C17.0869859,16.5 20.7806367,12.8063492 20.7806367,8.25 C20.7806367,3.69365081 17.0869859,3.55271368e-15 12.5306367,3.55271368e-15 Z M12.5306367,3 C15.4301317,3 17.7806367,5.35050506 17.7806367,8.25 C17.7806367,11.1494949 15.4301317,13.5 12.5306367,13.5 C9.63114181,13.5 7.28063675,11.1494949 7.28063675,8.25 C7.28063675,5.35050506 9.63114181,3 12.5306367,3 Z" id="Oval"></path>
                <path d="M12.5307562,13.4999999 C17.8879898,13.4999999 22.1516664,16.3234456 24.877739,20.8442704 L25.0612197,21.1551255 C24.9463853,21.2214662 24.4998854,21.4794127 23.7217198,21.9289651 C22.5544713,22.6032936 21.8397383,21.8955037 21.4956964,21.4325217 C19.3058405,18.4856024 16.2573948,16.7536025 12.5307562,16.7536025 C8.84463187,16.7536025 5.82202821,18.4480453 3.63750127,21.3365971 C3.33373564,21.7382597 2.64194045,22.6811224 1.31708837,21.9157086 C0.433853646,21.4054327 -0.00516055525,21.1518257 4.57640281e-05,21.1548877 C2.71656212,16.4531227 7.05175671,13.4999999 12.5307562,13.4999999 Z" id="Path"></path>
            </g>
        </g>
    </g>
</svg>